M48
; DRILL file {KiCad 6.0.0} date Tue 18 Jan 2022 07:01:22 PM EST
; FORMAT={-:-/ absolute / metric / decimal}
; #@! TF.CreationDate,2022-01-18T19:01:22-05:00
; #@! TF.GenerationSoftware,Kicad,Pcbnew,6.0.0
; #@! TF.FileFunction,Plated,1,2,PTH
FMAT,2
METRIC
; #@! TA.AperFunction,Plated,PTH,ViaDrill
T1C0.200
; #@! TA.AperFunction,Plated,PTH,ComponentDrill
T2C1.200
%
G90
G05
T1
X129.54Y-119.38
X132.08Y-119.38
X137.16Y-71.12
X139.7Y-68.58
X139.7Y-71.12
X139.7Y-73.66
X142.24Y-73.66
X144.78Y-73.66
X147.32Y-73.66
X149.86Y-73.66
X153.924Y-85.852
X154.438Y-86.366
X154.94Y-90.932
X154.94Y-114.3
X154.994Y-88.13
X155.032Y-96.104
X155.454Y-91.446
X155.616Y-87.64
X155.956Y-94.488
X159.004Y-97.028
X159.004Y-97.755
X159.004Y-98.552
X160.02Y-76.2
X160.02Y-78.74
X160.02Y-81.28
X160.02Y-83.82
X160.02Y-86.36
X160.02Y-88.9
X162.56Y-96.52
X162.56Y-99.06
X162.56Y-101.6
X162.56Y-104.14
X162.56Y-106.68
T2
X129.54Y-71.12
X129.54Y-76.2
X129.54Y-78.74
X129.54Y-81.28
X129.54Y-83.82
X129.54Y-86.36
X129.54Y-88.9
X129.54Y-91.44
X129.54Y-93.98
X129.54Y-96.52
X129.54Y-99.06
X129.54Y-101.6
X129.54Y-104.14
X129.54Y-106.68
X129.54Y-111.76
X129.54Y-114.3
X129.54Y-116.84
X134.62Y-71.12
X134.62Y-74.93
X134.62Y-77.47
X134.62Y-80.01
X134.62Y-82.55
X134.62Y-85.09
X134.62Y-87.63
X134.62Y-90.17
X134.62Y-92.71
X134.62Y-95.25
X134.62Y-97.79
X134.62Y-100.33
X134.62Y-102.87
X134.62Y-105.41
X134.62Y-107.95
X134.62Y-113.03
X134.62Y-115.57
X134.62Y-119.38
T0
M30
