%TF.GenerationSoftware,KiCad,Pcbnew,6.0.0*%
%TF.CreationDate,2022-01-18T19:01:37-05:00*%
%TF.ProjectId,G2_Testpoints_FFC,47325f54-6573-4747-906f-696e74735f46,rev?*%
%TF.SameCoordinates,Original*%
%TF.FileFunction,Soldermask,Top*%
%TF.FilePolarity,Negative*%
%FSLAX46Y46*%
G04 Gerber Fmt 4.6, Leading zero omitted, Abs format (unit mm)*
G04 Created by KiCad (PCBNEW 6.0.0) date 2022-01-18 19:01:37*
%MOMM*%
%LPD*%
G01*
G04 APERTURE LIST*
%ADD10C,0.150000*%
%ADD11R,1.600000X0.300000*%
%ADD12R,1.800000X1.100000*%
%ADD13C,1.800000*%
G04 APERTURE END LIST*
D10*
X152400000Y-63500000D02*
X154432000Y-63500000D01*
X154432000Y-63500000D02*
X154432000Y-69850000D01*
X154432000Y-69850000D02*
X152400000Y-69850000D01*
X152400000Y-69850000D02*
X152400000Y-63500000D01*
G36*
X152400000Y-63500000D02*
G01*
X154432000Y-63500000D01*
X154432000Y-69850000D01*
X152400000Y-69850000D01*
X152400000Y-63500000D01*
G37*
X140208000Y-63500000D02*
X142240000Y-63500000D01*
X142240000Y-63500000D02*
X142240000Y-69850000D01*
X142240000Y-69850000D02*
X140208000Y-69850000D01*
X140208000Y-69850000D02*
X140208000Y-63500000D01*
G36*
X140208000Y-63500000D02*
G01*
X142240000Y-63500000D01*
X142240000Y-69850000D01*
X140208000Y-69850000D01*
X140208000Y-63500000D01*
G37*
X161290000Y-104902000D02*
X159004000Y-104902000D01*
X159004000Y-104902000D02*
X159004000Y-107188000D01*
X159004000Y-107188000D02*
X161290000Y-107188000D01*
X161290000Y-107188000D02*
X161290000Y-104902000D01*
G36*
X161290000Y-104902000D02*
G01*
X159004000Y-104902000D01*
X159004000Y-107188000D01*
X161290000Y-107188000D01*
X161290000Y-104902000D01*
G37*
D11*
%TO.C,U2*%
X157270000Y-76650000D03*
X157270000Y-77150000D03*
X157270000Y-77650000D03*
X157270000Y-78150000D03*
X157270000Y-78650000D03*
X157270000Y-79150000D03*
X157270000Y-79650000D03*
X157270000Y-80150000D03*
X157270000Y-80650000D03*
X157270000Y-81150000D03*
X157270000Y-81650000D03*
X157270000Y-82150000D03*
X157270000Y-82650000D03*
X157270000Y-83150000D03*
X157270000Y-83650000D03*
X157270000Y-84150000D03*
X157270000Y-84650000D03*
X157270000Y-85150000D03*
X157270000Y-85650000D03*
X157270000Y-86150000D03*
X157270000Y-86650000D03*
X157270000Y-87150000D03*
X157270000Y-87650000D03*
X157270000Y-88150000D03*
X157270000Y-88650000D03*
X157270000Y-89150000D03*
X157270000Y-89650000D03*
X157270000Y-90150000D03*
X157270000Y-90650000D03*
X157270000Y-91150000D03*
X157270000Y-91650000D03*
X157270000Y-92150000D03*
X157270000Y-92650000D03*
X157270000Y-93150000D03*
X157270000Y-93650000D03*
X157270000Y-94150000D03*
X157270000Y-94650000D03*
X157270000Y-95150000D03*
X157270000Y-95650000D03*
X157270000Y-96150000D03*
X157270000Y-96650000D03*
X157270000Y-97150000D03*
X157270000Y-97650000D03*
X157270000Y-98150000D03*
X157270000Y-98650000D03*
X157270000Y-99150000D03*
X157270000Y-99650000D03*
X157270000Y-100150000D03*
X157270000Y-100650000D03*
X157270000Y-101150000D03*
D12*
X159970000Y-103300000D03*
X159970000Y-74500000D03*
%TD*%
D13*
%TO.C,U1*%
X134620000Y-119380000D03*
X129540000Y-116840000D03*
X134620000Y-115570000D03*
X129540000Y-114300000D03*
X134620000Y-113030000D03*
X129540000Y-111760000D03*
X134620000Y-107950000D03*
X129540000Y-106680000D03*
X134620000Y-105410000D03*
X129540000Y-104140000D03*
X134620000Y-102870000D03*
X129540000Y-101600000D03*
X134620000Y-100330000D03*
X129540000Y-99060000D03*
X134620000Y-97790000D03*
X129540000Y-96520000D03*
X134620000Y-95250000D03*
X129540000Y-93980000D03*
X134620000Y-92710000D03*
X129540000Y-91440000D03*
X134620000Y-90170000D03*
X129540000Y-88900000D03*
X134620000Y-87630000D03*
X129540000Y-86360000D03*
X134620000Y-85090000D03*
X129540000Y-83820000D03*
X134620000Y-82550000D03*
X129540000Y-81280000D03*
X134620000Y-80010000D03*
X129540000Y-78740000D03*
X134620000Y-77470000D03*
X129540000Y-76200000D03*
X134620000Y-74930000D03*
X134620000Y-71120000D03*
X129540000Y-71120000D03*
%TD*%
M02*
