%TF.GenerationSoftware,KiCad,Pcbnew,6.0.0*%
%TF.CreationDate,2022-01-18T19:01:36-05:00*%
%TF.ProjectId,G2_Testpoints_FFC,47325f54-6573-4747-906f-696e74735f46,rev?*%
%TF.SameCoordinates,Original*%
%TF.FileFunction,Legend,Top*%
%TF.FilePolarity,Positive*%
%FSLAX46Y46*%
G04 Gerber Fmt 4.6, Leading zero omitted, Abs format (unit mm)*
G04 Created by KiCad (PCBNEW 6.0.0) date 2022-01-18 19:01:36*
%MOMM*%
%LPD*%
G01*
G04 APERTURE LIST*
%ADD10C,0.150000*%
%ADD11C,0.120000*%
G04 APERTURE END LIST*
D10*
X137311904Y-77582380D02*
X137311904Y-76582380D01*
X137550000Y-76582380D01*
X137692857Y-76630000D01*
X137788095Y-76725238D01*
X137835714Y-76820476D01*
X137883333Y-77010952D01*
X137883333Y-77153809D01*
X137835714Y-77344285D01*
X137788095Y-77439523D01*
X137692857Y-77534761D01*
X137550000Y-77582380D01*
X137311904Y-77582380D01*
X138883333Y-77487142D02*
X138835714Y-77534761D01*
X138692857Y-77582380D01*
X138597619Y-77582380D01*
X138454761Y-77534761D01*
X138359523Y-77439523D01*
X138311904Y-77344285D01*
X138264285Y-77153809D01*
X138264285Y-77010952D01*
X138311904Y-76820476D01*
X138359523Y-76725238D01*
X138454761Y-76630000D01*
X138597619Y-76582380D01*
X138692857Y-76582380D01*
X138835714Y-76630000D01*
X138883333Y-76677619D01*
X140597619Y-76630000D02*
X140502380Y-76582380D01*
X140359523Y-76582380D01*
X140216666Y-76630000D01*
X140121428Y-76725238D01*
X140073809Y-76820476D01*
X140026190Y-77010952D01*
X140026190Y-77153809D01*
X140073809Y-77344285D01*
X140121428Y-77439523D01*
X140216666Y-77534761D01*
X140359523Y-77582380D01*
X140454761Y-77582380D01*
X140597619Y-77534761D01*
X140645238Y-77487142D01*
X140645238Y-77153809D01*
X140454761Y-77153809D01*
X141026190Y-76677619D02*
X141073809Y-76630000D01*
X141169047Y-76582380D01*
X141407142Y-76582380D01*
X141502380Y-76630000D01*
X141550000Y-76677619D01*
X141597619Y-76772857D01*
X141597619Y-76868095D01*
X141550000Y-77010952D01*
X140978571Y-77582380D01*
X141597619Y-77582380D01*
X142645238Y-76582380D02*
X143216666Y-76582380D01*
X142930952Y-77582380D02*
X142930952Y-76582380D01*
X143930952Y-77534761D02*
X143835714Y-77582380D01*
X143645238Y-77582380D01*
X143550000Y-77534761D01*
X143502380Y-77439523D01*
X143502380Y-77058571D01*
X143550000Y-76963333D01*
X143645238Y-76915714D01*
X143835714Y-76915714D01*
X143930952Y-76963333D01*
X143978571Y-77058571D01*
X143978571Y-77153809D01*
X143502380Y-77249047D01*
X144359523Y-77534761D02*
X144454761Y-77582380D01*
X144645238Y-77582380D01*
X144740476Y-77534761D01*
X144788095Y-77439523D01*
X144788095Y-77391904D01*
X144740476Y-77296666D01*
X144645238Y-77249047D01*
X144502380Y-77249047D01*
X144407142Y-77201428D01*
X144359523Y-77106190D01*
X144359523Y-77058571D01*
X144407142Y-76963333D01*
X144502380Y-76915714D01*
X144645238Y-76915714D01*
X144740476Y-76963333D01*
X145073809Y-76915714D02*
X145454761Y-76915714D01*
X145216666Y-76582380D02*
X145216666Y-77439523D01*
X145264285Y-77534761D01*
X145359523Y-77582380D01*
X145454761Y-77582380D01*
X145788095Y-76915714D02*
X145788095Y-77915714D01*
X145788095Y-76963333D02*
X145883333Y-76915714D01*
X146073809Y-76915714D01*
X146169047Y-76963333D01*
X146216666Y-77010952D01*
X146264285Y-77106190D01*
X146264285Y-77391904D01*
X146216666Y-77487142D01*
X146169047Y-77534761D01*
X146073809Y-77582380D01*
X145883333Y-77582380D01*
X145788095Y-77534761D01*
X146835714Y-77582380D02*
X146740476Y-77534761D01*
X146692857Y-77487142D01*
X146645238Y-77391904D01*
X146645238Y-77106190D01*
X146692857Y-77010952D01*
X146740476Y-76963333D01*
X146835714Y-76915714D01*
X146978571Y-76915714D01*
X147073809Y-76963333D01*
X147121428Y-77010952D01*
X147169047Y-77106190D01*
X147169047Y-77391904D01*
X147121428Y-77487142D01*
X147073809Y-77534761D01*
X146978571Y-77582380D01*
X146835714Y-77582380D01*
X147597619Y-77582380D02*
X147597619Y-76915714D01*
X147597619Y-76582380D02*
X147550000Y-76630000D01*
X147597619Y-76677619D01*
X147645238Y-76630000D01*
X147597619Y-76582380D01*
X147597619Y-76677619D01*
X148073809Y-76915714D02*
X148073809Y-77582380D01*
X148073809Y-77010952D02*
X148121428Y-76963333D01*
X148216666Y-76915714D01*
X148359523Y-76915714D01*
X148454761Y-76963333D01*
X148502380Y-77058571D01*
X148502380Y-77582380D01*
X148835714Y-76915714D02*
X149216666Y-76915714D01*
X148978571Y-76582380D02*
X148978571Y-77439523D01*
X149026190Y-77534761D01*
X149121428Y-77582380D01*
X149216666Y-77582380D01*
X150169047Y-76915714D02*
X150550000Y-76915714D01*
X150311904Y-76582380D02*
X150311904Y-77439523D01*
X150359523Y-77534761D01*
X150454761Y-77582380D01*
X150550000Y-77582380D01*
X151026190Y-77582380D02*
X150930952Y-77534761D01*
X150883333Y-77487142D01*
X150835714Y-77391904D01*
X150835714Y-77106190D01*
X150883333Y-77010952D01*
X150930952Y-76963333D01*
X151026190Y-76915714D01*
X151169047Y-76915714D01*
X151264285Y-76963333D01*
X151311904Y-77010952D01*
X151359523Y-77106190D01*
X151359523Y-77391904D01*
X151311904Y-77487142D01*
X151264285Y-77534761D01*
X151169047Y-77582380D01*
X151026190Y-77582380D01*
X152883333Y-77058571D02*
X152550000Y-77058571D01*
X152550000Y-77582380D02*
X152550000Y-76582380D01*
X153026190Y-76582380D01*
X153740476Y-77058571D02*
X153407142Y-77058571D01*
X153407142Y-77582380D02*
X153407142Y-76582380D01*
X153883333Y-76582380D01*
X154835714Y-77487142D02*
X154788095Y-77534761D01*
X154645238Y-77582380D01*
X154550000Y-77582380D01*
X154407142Y-77534761D01*
X154311904Y-77439523D01*
X154264285Y-77344285D01*
X154216666Y-77153809D01*
X154216666Y-77010952D01*
X154264285Y-76820476D01*
X154311904Y-76725238D01*
X154407142Y-76630000D01*
X154550000Y-76582380D01*
X154645238Y-76582380D01*
X154788095Y-76630000D01*
X154835714Y-76677619D01*
X137621428Y-79144761D02*
X137526190Y-79192380D01*
X137335714Y-79192380D01*
X137240476Y-79144761D01*
X137192857Y-79097142D01*
X137145238Y-79001904D01*
X137145238Y-78716190D01*
X137192857Y-78620952D01*
X137240476Y-78573333D01*
X137335714Y-78525714D01*
X137526190Y-78525714D01*
X137621428Y-78573333D01*
X138430952Y-79144761D02*
X138335714Y-79192380D01*
X138145238Y-79192380D01*
X138050000Y-79144761D01*
X138002380Y-79049523D01*
X138002380Y-78668571D01*
X138050000Y-78573333D01*
X138145238Y-78525714D01*
X138335714Y-78525714D01*
X138430952Y-78573333D01*
X138478571Y-78668571D01*
X138478571Y-78763809D01*
X138002380Y-78859047D01*
X138907142Y-78525714D02*
X138907142Y-79525714D01*
X138907142Y-78573333D02*
X139002380Y-78525714D01*
X139192857Y-78525714D01*
X139288095Y-78573333D01*
X139335714Y-78620952D01*
X139383333Y-78716190D01*
X139383333Y-79001904D01*
X139335714Y-79097142D01*
X139288095Y-79144761D01*
X139192857Y-79192380D01*
X139002380Y-79192380D01*
X138907142Y-79144761D01*
X140240476Y-79192380D02*
X140240476Y-78668571D01*
X140192857Y-78573333D01*
X140097619Y-78525714D01*
X139907142Y-78525714D01*
X139811904Y-78573333D01*
X140240476Y-79144761D02*
X140145238Y-79192380D01*
X139907142Y-79192380D01*
X139811904Y-79144761D01*
X139764285Y-79049523D01*
X139764285Y-78954285D01*
X139811904Y-78859047D01*
X139907142Y-78811428D01*
X140145238Y-78811428D01*
X140240476Y-78763809D01*
X140621428Y-78525714D02*
X140811904Y-79192380D01*
X141002380Y-78716190D01*
X141192857Y-79192380D01*
X141383333Y-78525714D01*
X141764285Y-79192380D02*
X141764285Y-78525714D01*
X141764285Y-78192380D02*
X141716666Y-78240000D01*
X141764285Y-78287619D01*
X141811904Y-78240000D01*
X141764285Y-78192380D01*
X141764285Y-78287619D01*
X142621428Y-79144761D02*
X142526190Y-79192380D01*
X142335714Y-79192380D01*
X142240476Y-79144761D01*
X142192857Y-79049523D01*
X142192857Y-78668571D01*
X142240476Y-78573333D01*
X142335714Y-78525714D01*
X142526190Y-78525714D01*
X142621428Y-78573333D01*
X142669047Y-78668571D01*
X142669047Y-78763809D01*
X142192857Y-78859047D01*
X143240476Y-79192380D02*
X143145238Y-79144761D01*
X143097619Y-79049523D01*
X143097619Y-78192380D01*
X144335714Y-78144761D02*
X143478571Y-79430476D01*
X144669047Y-79192380D02*
X144669047Y-78192380D01*
X144907142Y-78192380D01*
X145050000Y-78240000D01*
X145145238Y-78335238D01*
X145192857Y-78430476D01*
X145240476Y-78620952D01*
X145240476Y-78763809D01*
X145192857Y-78954285D01*
X145145238Y-79049523D01*
X145050000Y-79144761D01*
X144907142Y-79192380D01*
X144669047Y-79192380D01*
X146240476Y-79097142D02*
X146192857Y-79144761D01*
X146050000Y-79192380D01*
X145954761Y-79192380D01*
X145811904Y-79144761D01*
X145716666Y-79049523D01*
X145669047Y-78954285D01*
X145621428Y-78763809D01*
X145621428Y-78620952D01*
X145669047Y-78430476D01*
X145716666Y-78335238D01*
X145811904Y-78240000D01*
X145954761Y-78192380D01*
X146050000Y-78192380D01*
X146192857Y-78240000D01*
X146240476Y-78287619D01*
X146430952Y-79287619D02*
X147192857Y-79287619D01*
X147954761Y-78240000D02*
X147859523Y-78192380D01*
X147716666Y-78192380D01*
X147573809Y-78240000D01*
X147478571Y-78335238D01*
X147430952Y-78430476D01*
X147383333Y-78620952D01*
X147383333Y-78763809D01*
X147430952Y-78954285D01*
X147478571Y-79049523D01*
X147573809Y-79144761D01*
X147716666Y-79192380D01*
X147811904Y-79192380D01*
X147954761Y-79144761D01*
X148002380Y-79097142D01*
X148002380Y-78763809D01*
X147811904Y-78763809D01*
X148383333Y-78287619D02*
X148430952Y-78240000D01*
X148526190Y-78192380D01*
X148764285Y-78192380D01*
X148859523Y-78240000D01*
X148907142Y-78287619D01*
X148954761Y-78382857D01*
X148954761Y-78478095D01*
X148907142Y-78620952D01*
X148335714Y-79192380D01*
X148954761Y-79192380D01*
X149145238Y-79287619D02*
X149907142Y-79287619D01*
X150002380Y-78192380D02*
X150573809Y-78192380D01*
X150288095Y-79192380D02*
X150288095Y-78192380D01*
X150907142Y-79192380D02*
X150907142Y-78192380D01*
X151288095Y-78192380D01*
X151383333Y-78240000D01*
X151430952Y-78287619D01*
X151478571Y-78382857D01*
X151478571Y-78525714D01*
X151430952Y-78620952D01*
X151383333Y-78668571D01*
X151288095Y-78716190D01*
X150907142Y-78716190D01*
X151669047Y-79287619D02*
X152430952Y-79287619D01*
X153002380Y-78668571D02*
X152669047Y-78668571D01*
X152669047Y-79192380D02*
X152669047Y-78192380D01*
X153145238Y-78192380D01*
X153859523Y-78668571D02*
X153526190Y-78668571D01*
X153526190Y-79192380D02*
X153526190Y-78192380D01*
X154002380Y-78192380D01*
X154954761Y-79097142D02*
X154907142Y-79144761D01*
X154764285Y-79192380D01*
X154669047Y-79192380D01*
X154526190Y-79144761D01*
X154430952Y-79049523D01*
X154383333Y-78954285D01*
X154335714Y-78763809D01*
X154335714Y-78620952D01*
X154383333Y-78430476D01*
X154430952Y-78335238D01*
X154526190Y-78240000D01*
X154669047Y-78192380D01*
X154764285Y-78192380D01*
X154907142Y-78240000D01*
X154954761Y-78287619D01*
X144621428Y-80135714D02*
X144859523Y-80802380D01*
X145097619Y-80135714D01*
X146002380Y-80802380D02*
X145430952Y-80802380D01*
X145716666Y-80802380D02*
X145716666Y-79802380D01*
X145621428Y-79945238D01*
X145526190Y-80040476D01*
X145430952Y-80088095D01*
X146430952Y-80707142D02*
X146478571Y-80754761D01*
X146430952Y-80802380D01*
X146383333Y-80754761D01*
X146430952Y-80707142D01*
X146430952Y-80802380D01*
X147097619Y-79802380D02*
X147192857Y-79802380D01*
X147288095Y-79850000D01*
X147335714Y-79897619D01*
X147383333Y-79992857D01*
X147430952Y-80183333D01*
X147430952Y-80421428D01*
X147383333Y-80611904D01*
X147335714Y-80707142D01*
X147288095Y-80754761D01*
X147192857Y-80802380D01*
X147097619Y-80802380D01*
X147002380Y-80754761D01*
X146954761Y-80707142D01*
X146907142Y-80611904D01*
X146859523Y-80421428D01*
X146859523Y-80183333D01*
X146907142Y-79992857D01*
X146954761Y-79897619D01*
X147002380Y-79850000D01*
X147097619Y-79802380D01*
X152193809Y-71842380D02*
X152812857Y-71842380D01*
X152479523Y-72223333D01*
X152622380Y-72223333D01*
X152717619Y-72270952D01*
X152765238Y-72318571D01*
X152812857Y-72413809D01*
X152812857Y-72651904D01*
X152765238Y-72747142D01*
X152717619Y-72794761D01*
X152622380Y-72842380D01*
X152336666Y-72842380D01*
X152241428Y-72794761D01*
X152193809Y-72747142D01*
X153241428Y-72747142D02*
X153289047Y-72794761D01*
X153241428Y-72842380D01*
X153193809Y-72794761D01*
X153241428Y-72747142D01*
X153241428Y-72842380D01*
X153622380Y-71842380D02*
X154241428Y-71842380D01*
X153908095Y-72223333D01*
X154050952Y-72223333D01*
X154146190Y-72270952D01*
X154193809Y-72318571D01*
X154241428Y-72413809D01*
X154241428Y-72651904D01*
X154193809Y-72747142D01*
X154146190Y-72794761D01*
X154050952Y-72842380D01*
X153765238Y-72842380D01*
X153670000Y-72794761D01*
X153622380Y-72747142D01*
X154527142Y-71842380D02*
X154860476Y-72842380D01*
X155193809Y-71842380D01*
X140208095Y-71890000D02*
X140112857Y-71842380D01*
X139970000Y-71842380D01*
X139827142Y-71890000D01*
X139731904Y-71985238D01*
X139684285Y-72080476D01*
X139636666Y-72270952D01*
X139636666Y-72413809D01*
X139684285Y-72604285D01*
X139731904Y-72699523D01*
X139827142Y-72794761D01*
X139970000Y-72842380D01*
X140065238Y-72842380D01*
X140208095Y-72794761D01*
X140255714Y-72747142D01*
X140255714Y-72413809D01*
X140065238Y-72413809D01*
X140684285Y-72842380D02*
X140684285Y-71842380D01*
X141255714Y-72842380D01*
X141255714Y-71842380D01*
X141731904Y-72842380D02*
X141731904Y-71842380D01*
X141970000Y-71842380D01*
X142112857Y-71890000D01*
X142208095Y-71985238D01*
X142255714Y-72080476D01*
X142303333Y-72270952D01*
X142303333Y-72413809D01*
X142255714Y-72604285D01*
X142208095Y-72699523D01*
X142112857Y-72794761D01*
X141970000Y-72842380D01*
X141731904Y-72842380D01*
X157543523Y-105624380D02*
X157067333Y-105624380D01*
X157019714Y-106100571D01*
X157067333Y-106052952D01*
X157162571Y-106005333D01*
X157400666Y-106005333D01*
X157495904Y-106052952D01*
X157543523Y-106100571D01*
X157591142Y-106195809D01*
X157591142Y-106433904D01*
X157543523Y-106529142D01*
X157495904Y-106576761D01*
X157400666Y-106624380D01*
X157162571Y-106624380D01*
X157067333Y-106576761D01*
X157019714Y-106529142D01*
X157876857Y-105624380D02*
X158210190Y-106624380D01*
X158543523Y-105624380D01*
%TO.C,U2*%
X158672380Y-89661904D02*
X159481904Y-89661904D01*
X159577142Y-89614285D01*
X159624761Y-89566666D01*
X159672380Y-89471428D01*
X159672380Y-89280952D01*
X159624761Y-89185714D01*
X159577142Y-89138095D01*
X159481904Y-89090476D01*
X158672380Y-89090476D01*
X158767619Y-88661904D02*
X158720000Y-88614285D01*
X158672380Y-88519047D01*
X158672380Y-88280952D01*
X158720000Y-88185714D01*
X158767619Y-88138095D01*
X158862857Y-88090476D01*
X158958095Y-88090476D01*
X159100952Y-88138095D01*
X159672380Y-88709523D01*
X159672380Y-88090476D01*
D11*
X158830000Y-73590000D02*
X158830000Y-76400000D01*
X156290000Y-101400000D02*
X156290000Y-76400000D01*
X158250000Y-101400000D02*
X160990000Y-101400000D01*
X158830000Y-101400000D02*
X156290000Y-101400000D01*
X160990000Y-104210000D02*
X158830000Y-104210000D01*
X160990000Y-73590000D02*
X158830000Y-73590000D01*
X160990000Y-101400000D02*
X160990000Y-104210000D01*
X158830000Y-76400000D02*
X156290000Y-76400000D01*
X158830000Y-104210000D02*
X158830000Y-101400000D01*
X158250000Y-76400000D02*
X160990000Y-76400000D01*
X160990000Y-76400000D02*
X160990000Y-73590000D01*
X158250000Y-101400000D02*
X158250000Y-76400000D01*
%TD*%
M02*
